<svg width="619" height="723" viewBox="0 0 619 723" fill="none" xmlns="http://www.w3.org/2000/svg">
<path fill-rule="evenodd" clip-rule="evenodd" d="M477.814 143.079C496.174 146.486 515.011 140.387 527.887 126.866C540.768 113.345 545.939 94.2353 541.642 76.0633C537.345 57.8913 524.153 43.126 506.585 36.8087C489.011 30.4857 469.439 33.4753 454.554 44.7513C439.669 56.0221 431.486 74.054 432.805 92.678C434.122 111.303 444.763 128.001 461.091 137.063L429.779 224.35V224.355C429.3 226.251 428.394 228.017 427.128 229.517H337.207V247.293H427.128C440.461 247.293 445.035 234.553 446.535 230.361L477.847 143.095L477.814 143.079ZM461.09 585.519C445.325 594.275 434.839 610.191 433.017 628.134C431.199 646.071 438.272 663.77 451.959 675.514C465.647 687.254 484.214 691.555 501.667 687.03C519.126 682.504 533.261 669.723 539.517 652.806C545.772 635.894 543.355 616.988 533.048 602.191C522.74 587.394 505.84 578.582 487.808 578.592C484.454 578.603 481.11 578.915 477.813 579.525L446.558 492.243C445.058 488.051 440.491 475.311 427.152 475.311H337.23V493.087H427.168C428.418 494.582 429.319 496.337 429.803 498.223L461.115 585.509L461.09 585.519ZM319.41 41.9593C310.889 29.7771 299.675 19.7247 286.634 12.574C255.874 -4.19133 218.702 -4.19133 187.941 12.574C174.93 19.7251 163.743 29.7673 155.238 41.9287C177.421 37.0068 200.607 39.6161 221.139 49.3453C225.571 51.4599 227.457 56.762 225.348 61.1995C223.233 65.6317 217.931 67.5172 213.493 65.4025C198.515 58.2723 181.759 55.7463 165.343 58.1369C148.927 60.5276 133.583 67.7359 121.264 78.8449C105.551 93.1316 96.696 113.449 96.9254 134.684C107.3 135.48 117.452 138.111 126.904 142.454C131.362 144.517 133.305 149.798 131.243 154.251C129.185 158.71 123.904 160.652 119.446 158.595C108.243 153.439 95.8723 151.329 83.5909 152.491C70.544 153.46 58.0803 158.303 47.8043 166.403C37.5283 174.497 29.903 185.476 25.903 197.934C22.2311 210.137 22.4655 223.184 26.5852 235.246C30.705 247.303 38.4967 257.772 48.8666 265.183C51.1635 266.897 52.4916 269.615 52.4343 272.485C52.3718 275.355 50.9291 278.016 48.5594 279.631C32.7047 290.042 20.158 304.762 12.3927 322.068C4.6271 339.371 1.97604 358.532 4.74164 377.292C8.69471 402.262 21.8923 424.823 41.711 440.511C45.4558 443.605 46.0235 449.136 42.987 452.922C39.9454 456.714 34.4245 457.36 30.5911 454.376C22.8985 448.193 15.9818 441.105 9.99249 433.261C0.445552 447.996 -2.42419 466.073 2.09141 483.037C5.88835 496.292 13.6018 508.089 24.2221 516.881C34.8424 525.673 47.8727 531.048 61.6021 532.302C66.0813 533.026 69.2999 537.01 69.0657 541.547C68.8313 546.078 65.2167 549.708 60.6854 549.964C60.3729 549.964 60.0604 549.964 59.7375 549.922V549.927C51.0656 549 42.5708 546.813 34.5295 543.438C25.7326 554.063 21.1442 567.547 21.6492 581.328C22.1492 595.115 27.7014 608.23 37.2479 618.188C48.55 629.751 63.8052 636.62 79.9559 637.418C96.1066 638.209 111.961 632.871 124.347 622.475C126.966 620.173 130.701 619.631 133.867 621.095C137.039 622.558 139.044 625.751 138.998 629.24C139.17 645.855 143.81 662.115 152.424 676.319C161.039 690.522 173.32 702.147 187.971 709.98C218.731 726.74 255.903 726.74 286.668 709.98C299.71 702.835 310.923 692.778 319.439 680.585V41.9578L319.41 41.9593ZM130.223 363.626C131.942 358.418 134.14 353.381 136.791 348.585C128.275 339.475 122.963 327.839 121.66 315.434C120.353 303.033 123.129 290.543 129.567 279.861C132.087 275.684 137.504 274.324 141.702 276.809C145.9 279.293 147.311 284.699 144.863 288.918C139.462 298.319 137.973 309.465 140.728 319.954C143.478 330.438 150.249 339.423 159.572 344.959C169.994 351.761 182.26 355.188 194.703 354.787C207.145 354.381 219.161 350.157 229.124 342.694C232.983 339.668 238.567 340.35 241.593 344.209C244.614 348.074 243.937 353.657 240.072 356.678C227.301 366.267 211.921 371.751 195.968 372.413C180.015 373.069 164.233 368.871 150.713 360.371C145.015 371.96 142.765 384.95 144.239 397.778C145.713 410.611 150.843 422.747 159.026 432.742C162.047 436.611 161.359 442.195 157.49 445.211C153.625 448.231 148.042 447.544 145.021 443.679C126.875 421.215 121.313 391.101 130.25 363.643L130.223 363.626ZM178.515 204.986L178.52 204.981C175.375 204.986 172.458 203.325 170.859 200.616C163.036 187.34 160.76 171.518 164.515 156.575C168.27 141.632 177.76 128.768 190.931 120.772C204.489 111.939 220.437 107.491 236.609 108.033C252.781 108.574 268.395 114.08 281.333 123.798C283.218 125.241 284.442 127.376 284.744 129.73C285.041 132.084 284.385 134.459 282.921 136.329C281.458 138.199 279.312 139.402 276.952 139.678C274.598 139.954 272.228 139.272 270.374 137.793C260.421 130.329 248.415 126.116 235.983 125.709C223.551 125.303 211.295 128.73 200.879 135.527C191.551 141.058 184.781 150.038 182.03 160.527C179.275 171.011 180.765 182.163 186.171 191.558C187.801 194.303 187.832 197.714 186.249 200.49C184.671 203.266 181.728 204.98 178.535 204.98L178.515 204.986ZM283.693 629.986C287.557 626.96 293.14 627.637 296.161 631.502C299.187 635.361 298.505 640.944 294.646 643.97C281.708 653.689 266.099 659.189 249.927 659.73C233.755 660.277 217.807 655.829 204.25 647.006C191.078 639.006 181.588 626.142 177.834 611.194C174.073 596.252 176.355 580.429 184.177 567.153C185.313 564.997 187.282 563.403 189.62 562.742C191.964 562.08 194.474 562.408 196.568 563.648C198.662 564.887 200.151 566.934 200.693 569.309C201.235 571.684 200.782 574.174 199.433 576.2C194.032 585.601 192.542 596.752 195.297 607.236C198.052 617.726 204.823 626.709 214.152 632.241C224.574 639.049 236.84 642.481 249.277 642.08C261.72 641.674 273.735 637.455 283.693 629.986ZM160.687 509.106C151.364 514.637 144.594 523.622 141.843 534.106C139.088 544.596 140.572 555.746 145.979 565.142C147.328 567.173 147.781 569.663 147.239 572.033C146.697 574.408 145.208 576.455 143.114 577.694C141.02 578.939 138.51 579.267 136.166 578.606C133.822 577.939 131.859 576.345 130.723 574.194C122.906 560.918 120.625 545.101 124.385 530.158C128.14 515.215 137.63 502.355 150.797 494.355C164.354 485.522 180.302 481.074 196.48 481.621C212.652 482.163 228.266 487.673 241.198 497.397C245.058 500.423 245.735 506.006 242.709 509.866C239.683 513.725 234.099 514.402 230.24 511.376C220.282 503.902 208.267 499.678 195.824 499.272C183.386 498.866 171.121 502.298 160.693 509.105L160.687 509.106ZM508.981 352.399H337.167V370.175H508.981V370.17C511.986 388.566 524.079 404.197 541.131 411.722C558.178 419.248 577.881 417.649 593.495 407.472C609.11 397.3 618.526 379.92 618.526 361.284C618.526 342.648 609.109 325.268 593.495 315.096C577.881 304.919 558.178 303.32 541.131 310.846C524.079 318.372 511.986 334.003 508.981 352.399Z" fill="white"/>
</svg>
